<?xml version="1.0" encoding="utf-8"?>
<!-- Generator: Adobe Illustrator 23.0.0, SVG Export Plug-In . SVG Version: 6.00 Build 0)  -->
<svg version="1.1" id="Capa_1" xmlns="http://www.w3.org/2000/svg" xmlns:xlink="http://www.w3.org/1999/xlink" x="0px" y="0px"
	 viewBox="0 0 1200 800" style="enable-background:new 0 0 1200 800;" xml:space="preserve">
<style type="text/css">
	.st0{fill:#C9AA93;}
	.st1{fill:#F3CC8A;}
	.st2{fill:#1A1634;}
	.st3{fill:#2A245D;}
</style>
<g>
	<polygon class="st0" points="362.09,520.83 1107.93,410.43 1111.87,694.46 359.49,779.37 	"/>
	<polygon class="st1" points="348.83,511.49 1094.67,401.09 1098.61,685.12 346.23,770.03 	"/>
	<path class="st2" d="M196.36,589.55l579.27-66.34c22.08-2.45,29.69-30.72,11.81-43.91L585.86,330.48
		c-16.12-11.9-38.92-0.39-38.92,19.65l0,0c0,12.44-9.35,22.89-21.72,24.26l-339.88,39.94c-12.78,1.41-22.26,12.51-21.69,25.34
		l5.63,126.69C169.9,580.46,182.33,591.1,196.36,589.55z"/>
	<path class="st3" d="M793.85,463.93L592.26,315.11c-16.12-11.9-38.92-0.39-38.92,19.65c0,12.44-9.35,22.89-21.72,24.26
		l-339.88,39.94c-12.78,1.41-22.27,12.5-21.69,25.34l0.41,9.28l-121.9,10.35c-5.64,0.48-9.82,5.44-9.34,11.08
		c0.46,5.34,4.93,9.38,10.2,9.38c0.29,0,0.58-0.01,0.88-0.04l121.08-10.28l0.61,13.62L46.21,478.37c-5.64,0.48-9.82,5.44-9.34,11.08
		c0.46,5.34,4.93,9.38,10.2,9.38c0.29,0,0.58-0.01,0.88-0.03l124.95-10.61l0.52,11.59l-88.14,7.48c-5.64,0.48-9.82,5.44-9.34,11.08
		c0.46,5.34,4.93,9.38,10.2,9.38c0.29,0,0.58-0.01,0.88-0.04l87.32-7.41l1.37,30.73c0.62,14.11,13.05,24.74,27.08,23.19
		l579.27-66.34C804.11,505.39,811.72,477.13,793.85,463.93z"/>
	<g>
		<path class="st1" d="M316.31,434.87l70.34-8.71l-1.63,19.85l-49.11,6.08l-2.26,30l40.59-5.03l-1.5,18.37l-40.59,5.03l-3.94,48.23
			l-21.23,2.63L316.31,434.87z"/>
		<path class="st1" d="M419.8,422.05l19.06-2.36l30.03,111.58l-22,2.72l-6.92-27.89l-35.48,4.4l-11.37,30.15l-22,2.73L419.8,422.05z
			 M437.58,490.65l-10.33-44.03l-18.02,47.54L437.58,490.65z"/>
		<path class="st1" d="M515.06,526.85c-7.75,0.96-15.37,0.61-22.86-1.06c-7.5-1.67-14.12-4.53-19.86-8.58l10.97-20.68
			c0.63,0.9,2,2,4.11,3.31c2.1,1.31,4.67,2.56,7.7,3.76c3.03,1.2,6.45,2.1,10.25,2.71c3.8,0.61,7.71,0.67,11.74,0.17
			c6.2-0.77,10.66-2.59,13.4-5.48c2.73-2.88,3.85-6.4,3.33-10.56c-0.25-2.02-1.07-3.71-2.44-5.06c-1.37-1.35-3.16-2.48-5.38-3.4
			c-2.21-0.92-4.8-1.7-7.77-2.37c-2.97-0.66-6.22-1.31-9.76-1.96c-8.05-1.49-14.32-3.83-18.8-7.01c-4.48-3.18-7.13-8.02-7.94-14.53
			c-0.82-6.61-0.26-12.66,1.68-18.15c1.94-5.49,4.83-10.31,8.67-14.47c3.84-4.16,8.45-7.52,13.85-10.08
			c5.4-2.56,11.14-4.22,17.24-4.98c7.33-0.91,14.02-0.46,20.07,1.33c6.04,1.8,11.24,4.16,15.59,7.08l-10.95,19.54
			c-0.51-0.69-1.61-1.59-3.32-2.67c-1.71-1.09-3.8-2.1-6.28-3.04c-2.48-0.94-5.21-1.65-8.21-2.15c-3-0.49-6.05-0.55-9.14-0.17
			c-6.2,0.77-10.67,2.73-13.43,5.89c-2.75,3.16-3.85,7.03-3.28,11.61c0.22,1.81,0.86,3.33,1.9,4.55c1.04,1.23,2.5,2.23,4.39,3.03
			c1.88,0.8,4.11,1.47,6.7,2.01c2.59,0.55,5.59,1.09,9.01,1.64c4.28,0.66,8.19,1.53,11.73,2.61c3.54,1.08,6.63,2.51,9.26,4.29
			c2.63,1.78,4.77,4.04,6.42,6.75c1.65,2.72,2.72,6.05,3.21,10c0.89,7.14,0.3,13.44-1.75,18.89c-2.05,5.45-5.04,10.07-8.98,13.86
			c-3.93,3.79-8.63,6.78-14.07,8.97C526.61,524.66,520.95,526.12,515.06,526.85z"/>
		<path class="st1" d="M599.76,419.4l-33,4.09l1.48-19.83l87.23-10.81l-1.63,19.85l-32.85,4.07l-7.7,96.6l-21.38,2.65L599.76,419.4z
			"/>
	</g>
	<g>
		<path class="st3" d="M402.29,711.05l9.35-116.45l46.48-5.75c4.13-0.51,7.96-0.09,11.48,1.26c3.52,1.35,6.6,3.35,9.24,6
			c2.63,2.65,4.78,5.8,6.44,9.43c1.65,3.64,2.73,7.43,3.22,11.38c0.51,4.16,0.35,8.32-0.5,12.49c-0.85,4.16-2.22,8.15-4.11,11.96
			c-1.89,3.81-4.24,7.29-7.05,10.45c-2.81,3.16-5.97,5.77-9.49,7.83l20.15,40.87l-24.17,2.99l-17.72-36.46l-19.06,2.36l-3.04,39.03
			L402.29,711.05z M452.83,646.5c2.07-0.26,4.03-1.12,5.89-2.6c1.86-1.47,3.44-3.35,4.73-5.62c1.29-2.27,2.26-4.83,2.91-7.67
			c0.64-2.84,0.78-5.75,0.41-8.74c-0.5-4.05-1.88-7.32-4.12-9.8c-2.25-2.48-4.77-3.55-7.55-3.21l-23.86,2.95l-3.04,37.73
			L452.83,646.5z"/>
		<path class="st3" d="M508.01,582.68l71.27-8.81l-1.48,19.83l-50.2,6.21l-2.2,28.04l43.23-5.35l-1.5,18.37l-43.23,5.35l-2.38,30.34
			l51.44-6.36l-1.64,19.85l-72.67,8.99L508.01,582.68z"/>
		<path class="st3" d="M624.06,568.33l19.06-2.36l30,111.59l-22,2.72l-6.91-27.89l-35.48,4.39l-11.37,30.15l-22,2.72L624.06,568.33z
			 M641.83,636.93L631.5,592.9l-18.03,47.54L641.83,636.93z"/>
		<path class="st3" d="M691.3,560.01l38.27-4.73c7.13-0.88,13.44-0.5,18.94,1.15c5.5,1.65,10.2,4.24,14.09,7.76
			c3.9,3.52,7,7.85,9.31,12.98c2.31,5.13,3.85,10.79,4.62,16.97c1.24,10.02,0.76,19.47-1.45,28.35
			c-2.21,8.88-5.85,16.78-10.91,23.68c-5.07,6.91-11.34,12.61-18.81,17.1c-7.47,4.5-15.85,7.32-25.14,8.47l-38.27,4.73L691.3,560.01
			z M721.7,651.9c5.89-0.73,11.08-2.67,15.56-5.82c4.49-3.15,8.17-7.1,11.04-11.84c2.88-4.74,4.89-10.05,6.05-15.93
			c1.16-5.88,1.35-11.97,0.57-18.26c-1.03-8.32-3.85-14.79-8.46-19.41c-4.61-4.63-10.79-6.46-18.54-5.5l-17.04,2.11l-6.08,76.75
			L721.7,651.9z"/>
		<path class="st3" d="M795.44,547.3l21.23-2.63l-9.37,116.29l-21.23,2.63L795.44,547.3z"/>
		<path class="st3" d="M836.48,542.06l16.58-2.05l46.71,69.9l6.14-76.27l21.23-2.63l-9.37,116.3l-17.2,2.13l-46.34-68.16
			l-5.87,74.61l-21.23,2.62L836.48,542.06z"/>
		<path class="st3" d="M1011,622.79c-4.69,5.34-9.45,9.43-14.3,12.24c-4.84,2.82-10,4.57-15.48,5.24
			c-5.89,0.73-11.38,0.19-16.48-1.62c-5.1-1.8-9.64-4.57-13.61-8.3c-3.98-3.73-7.27-8.33-9.89-13.8c-2.62-5.47-4.33-11.5-5.15-18.12
			c-1.13-9.17-0.41-18.11,2.19-26.82c2.59-8.71,6.5-16.58,11.71-23.61c5.21-7.03,11.46-12.87,18.76-17.5
			c7.29-4.64,15.07-7.47,23.33-8.49c9.81-1.21,18.07,0.04,24.77,3.76c6.7,3.72,11.55,9.24,14.55,16.55l-16.93,14.44
			c-2.15-5.47-5.39-9.46-9.74-11.95c-4.35-2.49-9.31-3.4-14.88-2.71c-5.17,0.64-9.86,2.55-14.08,5.72
			c-4.22,3.18-7.82,7.14-10.8,11.89c-2.98,4.75-5.13,10.05-6.45,15.9c-1.32,5.85-1.61,11.76-0.88,17.73
			c0.51,4.16,1.54,7.98,3.07,11.47c1.53,3.49,3.47,6.45,5.82,8.86c2.34,2.42,5.05,4.19,8.13,5.33c3.08,1.14,6.42,1.48,10.04,1.03
			c9.92-1.23,19.24-7.63,27.99-19.21l0.71-8.21l-20.92,2.59l1.41-16.58l38.58-4.77l-4.87,59.88l-17.66,2.18L1011,622.79z"/>
	</g>
	<g>
		<path class="st3" d="M1021.12,146.74c6.05-11.58,9.45-24.59,9.45-38.32c0-48.41-42.22-87.79-94.12-87.79
			c-51.9,0-94.12,39.39-94.12,87.79c0,13.73,3.4,26.73,9.45,38.31c-21.69,11.08-40.95,26.27-56.73,44.55l-5.32-4.75l5.8-6.5
			c0.58-0.65,0.47-1.33-0.03-1.77l-10.05-8.96c-0.5-0.44-1.25-0.53-1.83,0.12l-21.85,24.5c-0.58,0.65-0.77,1.79-0.27,2.23
			l10.05,8.96c0.5,0.44,1.54,0.07,2.12-0.58l5.44-6.1l6.02,5.37c-22.31,30.77-35.48,68.58-35.48,109.41
			c0,103,83.8,186.8,186.8,186.8s186.8-83.8,186.8-186.8C1123.25,240.68,1081.69,177.67,1021.12,146.74z M804.59,271.41
			c-1.05,3.19-4.01,5.23-7.17,5.23c-0.78,0-1.57-0.12-2.32-0.36c-3.94-1.29-6.14-5.54-4.85-9.48c1.26-3.98,5.51-6.15,9.46-4.85
			C803.69,263.22,805.86,267.46,804.59,271.41z M782.89,314.26c0-4.16,3.34-7.56,7.49-7.56c4.15,0,7.53,3.37,7.56,7.53
			c0,4.15-3.37,7.53-7.53,7.53C786.26,321.75,782.89,318.41,782.89,314.26z M799.92,366.5c-0.78,0.24-1.56,0.36-2.35,0.36
			c-3.16,0-6.12-2.02-7.14-5.21c-1.29-3.94,0.87-8.19,4.82-9.48c3.94-1.29,8.19,0.87,9.48,4.82
			C806.04,360.93,803.87,365.2,799.92,366.5z M811.97,223.95c2.44-3.38,7.17-4.13,10.54-1.66c3.37,2.44,4.13,7.14,1.69,10.51h-0.03
			c-1.45,2.02-3.76,3.1-6.08,3.1c-1.54,0-3.07-0.45-4.43-1.45C810.31,232.02,809.56,227.32,811.97,223.95z M822.84,406.06
			c-1.32,0.97-2.89,1.45-4.42,1.45c-2.32,0-4.61-1.08-6.09-3.09c-2.44-3.35-1.71-8.07,1.66-10.51c3.34-2.47,8.07-1.71,10.51,1.63
			C826.94,398.9,826.21,403.59,822.84,406.06z M845.84,189.93c3.37-2.44,8.07-1.72,10.54,1.62c2.44,3.37,1.72,8.07-1.63,10.54
			c-1.35,0.96-2.92,1.44-4.46,1.44c-2.32,0-4.61-1.06-6.08-3.07C841.78,197.1,842.5,192.4,845.84,189.93z M856.86,436.62
			c-1.47,2.05-3.79,3.13-6.11,3.13c-1.54,0-3.07-0.48-4.43-1.44c-3.37-2.44-4.09-7.17-1.66-10.51c2.44-3.38,7.14-4.13,10.51-1.69
			C858.55,428.56,859.31,433.28,856.86,436.62z M888.57,167.98c3.95-1.3,8.22,0.87,9.52,4.81c1.3,3.94-0.88,8.22-4.82,9.52v-0.03
			c-0.78,0.27-1.56,0.39-2.35,0.39c-3.16,0-6.11-2.02-7.17-5.18C882.46,173.55,884.63,169.27,888.57,167.98z M898.63,455.24
			c-1.03,3.19-3.98,5.21-7.17,5.21c-0.75,0-1.54-0.12-2.32-0.36c-3.95-1.26-6.11-5.51-4.85-9.45c1.29-3.98,5.51-6.14,9.49-4.88
			C897.73,447.04,899.89,451.29,898.63,455.24z M935.97,160.39c0.03,0,0.03,0,0.03,0c-0.01,0-0.01,0-0.01,0
			c4.14-0.02,7.54,3.35,7.54,7.5c0.03,4.16-3.34,7.53-7.5,7.56H936c-4.13,0-7.5-3.37-7.53-7.53c0-4.15,3.33-7.52,7.52-7.53
			C935.98,160.39,935.97,160.39,935.97,160.39z M936.6,467.52c-4.15,0-7.53-3.37-7.53-7.53c-0.03-4.15,3.34-7.52,7.5-7.52
			c4.16,0,7.53,3.34,7.56,7.49C944.13,464.12,940.75,467.52,936.6,467.52z M984.02,459.99c-0.78,0.27-1.57,0.39-2.35,0.39
			c-3.16,0-6.11-2.02-7.14-5.21c-1.29-3.95,0.88-8.22,4.82-9.48c3.94-1.3,8.22,0.87,9.48,4.82
			C990.14,454.45,987.97,458.7,984.02,459.99z M973.97,172.58c1.26-3.97,5.51-6.14,9.48-4.87c3.94,1.26,6.11,5.51,4.85,9.48
			c-1.02,3.19-3.98,5.21-7.17,5.21c-0.75,0-1.53-0.12-2.29-0.36C974.87,180.77,972.7,176.53,973.97,172.58z M1005.02,139.46
			c-11.93-4.73-24.46-8.25-37.44-10.44v-20.81h27.46v-30.2H877.86v30.2h27.46v20.8c-12.98,2.19-25.51,5.71-37.44,10.44
			c-5.06-9.36-7.9-19.9-7.9-31.03c0-38.68,34.3-70.15,76.48-70.15c42.17,0,76.47,31.47,76.47,70.15
			C1012.93,119.56,1010.08,130.1,1005.02,139.46z M1015.79,191.1c2.44-3.37,7.14-4.12,10.51-1.72c3.37,2.44,4.12,7.17,1.68,10.54
			c-1.48,2.02-3.76,3.1-6.11,3.1c-1.53,0-3.07-0.45-4.39-1.42C1014.11,199.17,1013.35,194.44,1015.79,191.1z M1026.78,438.13
			c-1.33,1-2.89,1.45-4.43,1.45c-2.32,0-4.61-1.05-6.08-3.1c-2.47-3.34-1.72-8.04,1.65-10.51c3.34-2.44,8.07-1.72,10.51,1.65
			C1030.88,430.96,1030.15,435.69,1026.78,438.13z M1049.84,221.6c3.34-2.44,8.07-1.71,10.51,1.63c2.47,3.34,1.75,8.07-1.6,10.51
			c-1.35,0.99-2.92,1.48-4.46,1.48c-2.32,0-4.6-1.06-6.08-3.07C1045.78,228.77,1046.5,224.07,1049.84,221.6z M1060.71,404.16
			c-1.47,2.05-3.76,3.1-6.08,3.1c-1.54,0-3.1-0.45-4.43-1.44c-3.37-2.44-4.09-7.14-1.65-10.51c2.44-3.34,7.13-4.1,10.51-1.66
			C1062.4,396.1,1063.16,400.83,1060.71,404.16z M1072.85,261.14c3.95-1.3,8.19,0.84,9.52,4.79c0,0,0,0-0.03,0
			c1.29,3.95-0.84,8.22-4.79,9.52c-0.79,0.24-1.57,0.36-2.35,0.36c-3.17,0-6.11-1.99-7.14-5.15l-0.03-0.03
			C1066.74,266.68,1068.9,262.43,1072.85,261.14z M1082.55,361.38c-1.05,3.19-4.01,5.21-7.17,5.21c-0.78,0-1.57-0.12-2.32-0.36
			c-3.97-1.29-6.14-5.54-4.85-9.49c1.3-3.94,5.54-6.11,9.48-4.85C1081.65,353.19,1083.81,357.43,1082.55,361.38z M1090.01,313.95
			c0,4.16-3.37,7.53-7.53,7.53c-4.16,0-7.53-3.37-7.53-7.53c0-0.12,0-0.21,0-0.3c0-0.09,0-0.18,0-0.27
			c-0.03-4.16,3.34-7.53,7.5-7.56c4.15,0,7.53,3.34,7.56,7.5c0,0.12,0,0.24,0,0.33C1090.01,313.74,1090.01,313.83,1090.01,313.95z"
			/>
		<path class="st1" d="M1136.25,282.06v-33.16c0,0-118.64,7.58-200.28,83.19c-79.01-79.02-200.29-83.19-200.29-83.19v33.16
			c55.17,10.22,140.45,35.14,200.29,95.47C995.8,317.2,1081.09,292.28,1136.25,282.06z"/>
	</g>
</g>
</svg>
